# xmcd
#
# Track frame offsets: 
#        150
#        13154
#        28252
#        46849
#        61651
#        76064
#        100484
#        121205
#        142713
#        155245
#
# Disc length: 2380 seconds
#
# Revision: 0
# Processed by: cddbd v1.5.2PL0 Copyright (c) Steve Scherf et al.
# Submitted via: ExactAudioCopy v0.99pb5
#
DISCID=78094a0a
DTITLE=Татьяна Снежина - Вспомни со мной... CD1
DYEAR=2004
DGENRE=Blues
TTITLE0=Город мой
TTITLE1=Было время
TTITLE2=Роза
TTITLE3=Твой первый дождь
TTITLE4=Морячок
TTITLE5=Нас больше нет
TTITLE6=Фигаро
TTITLE7=Ты говорил о любви
TTITLE8=Праздник лжи
TTITLE9=Сон
EXTD=
EXTT0=
EXTT1=
EXTT2=
EXTT3=
EXTT4=
EXTT5=
EXTT6=
EXTT7=
EXTT8=
EXTT9=
PLAYORDER=
